<svg xmlns="http://www.w3.org/2000/svg" viewBox="0 0 162.37 149.75"><defs><style>.cls-1{fill:#099799;}.cls-2{fill:#ff8652;}.cls-3,.cls-4,.cls-5{fill:none;stroke:#ffc3c3;stroke-linecap:round;stroke-linejoin:round;}.cls-3{stroke-width:6.74px;}.cls-4{stroke-width:4.49px;}.cls-5{stroke-width:7.87px;}</style></defs><g id="图层_2" data-name="图层 2"><g id="图层_7" data-name="图层 7"><path class="cls-1" d="M149.06,69.25a17.84,17.84,0,0,0-11.36-31.6,18.12,18.12,0,0,0-3.31.32c0-.06,0-.11,0-.16A25.2,25.2,0,0,0,92.42,19,32.7,32.7,0,0,0,30,32.72a33.76,33.76,0,0,0,.39,4.85,42.34,42.34,0,0,0,10.63,82.95v0H137.7c13.63,0,24.67-12.17,24.67-27.18C162.37,82.87,157,73.78,149.06,69.25Z"/><circle class="cls-2" cx="37.79" cy="51.28" r="3.71"/><circle class="cls-2" cx="18.17" cy="87.35" r="3.71"/><circle class="cls-2" cx="109.13" cy="28.69" r="3.71"/><circle class="cls-2" cx="148.62" cy="91.71" r="3.71"/><path class="cls-3" d="M82,123.21c6.82-22.72,26.36-41.16,49.44-46.66"/><path class="cls-3" d="M80.58,124.14c-2.94-20-20.11-37.13-40.17-40"/><path class="cls-3" d="M80.5,121.38c-5.31-25,4.25-52.52,23.88-68.83"/><path class="cls-3" d="M63.51,39.09A62.21,62.21,0,0,1,83,82.91"/><path class="cls-4" d="M98,97a38.76,38.76,0,0,1,27.76,5.23"/><path class="cls-4" d="M91.61,68.92a56.75,56.75,0,0,1,26.26-4.25"/><path class="cls-4" d="M106.22,87.35A31.34,31.34,0,0,0,107.08,76"/><path class="cls-4" d="M61.66,94.12a20.46,20.46,0,0,0-19.24,9.36"/><path class="cls-4" d="M80.09,67a20.74,20.74,0,0,0-20.62-2.92"/><line class="cls-5" x1="81.19" y1="119.06" x2="81.19" y2="145.81"/></g></g></svg>