<?xml version="1.0" standalone="no"?><!DOCTYPE svg PUBLIC "-//W3C//DTD SVG 1.1//EN" "http://www.w3.org/Graphics/SVG/1.1/DTD/svg11.dtd"><svg t="1665809283526" class="icon" viewBox="0 0 1024 1024" version="1.1" xmlns="http://www.w3.org/2000/svg" p-id="1376" xmlns:xlink="http://www.w3.org/1999/xlink" width="200" height="200"><path d="M723.482187 383.95485c8.668783-9.391182 18.782363-18.059965 29.257143-25.283951 11.197178-7.585185 23.477954-14.086772 36.119929-18.782363-14.809171-13.003175-42.621517-33.230335-79.463845-34.313933-4.695591 0-9.752381 0-14.447971 0.722399 3.973192-11.919577 8.668783-23.839153 14.447971-35.036332 6.140388-12.641975 13.364374-24.922751 21.671958-36.481129-16.976367-0.361199-33.952734 1.444797-50.567901 5.779189-37.564727 9.752381-61.765079 28.173545-69.350265 34.313933-1.083598 0.722399-1.805996 1.444797-2.167195 1.805997-10.835979-23.839153-28.895944-43.705115-52.012699-56.70829-22.755556 13.003175-40.81552 32.869136-51.651499 56.70829-0.361199-0.361199-1.444797-1.083598-2.167196-1.805997-7.585185-6.140388-31.785538-24.561552-69.350264-34.313933-16.615168-4.334392-33.591534-6.140388-50.567902-5.779189 8.307584 11.558377 15.53157 23.839153 21.671958 36.481129 5.417989 11.197178 10.47478 23.116755 14.447972 35.036332-4.695591-0.361199-9.752381-0.722399-14.447972-0.722399-36.842328 1.083598-64.654674 21.310758-79.463845 34.313933 12.641975 4.695591 24.922751 11.197178 36.11993 18.782363 10.835979 7.223986 20.58836 15.892769 29.257143 25.283951C323.995767 448.248325 325.079365 564.554497 325.079365 570.694885c0.361199 26.006349 7.223986 143.034921 77.296649 194.68642 15.17037 11.197178 28.534744 16.253968 41.17672 19.865961 30.70194 9.391182 65.738272 14.086772 104.025397 14.086773h18.782363c38.287125 0 73.323457-4.695591 104.025397-14.086773 12.641975-3.611993 26.006349-8.668783 41.176719-19.865961 70.072663-51.651499 76.93545-169.04127 77.296649-194.68642 0.361199-6.140388 1.444797-122.085362-65.377072-186.740035z m0 0" fill="#05371D" p-id="1377"></path><path d="M756.712522 332.66455c-20.22716-5.417989-41.17672-6.862787-61.765079-4.334391-41.899118 5.417989-70.433862 26.006349-82.714639 36.119929l64.293475 44.427513c10.835979-37.925926 41.537919-67.183069 80.186243-76.213051z m-398.402822 0c20.22716-5.417989 41.17672-6.862787 61.76508-4.334391 41.899118 5.417989 70.433862 26.006349 82.714638 36.119929l-64.293474 44.427513c-5.779189-20.22716-16.976367-38.287125-32.869136-52.373897-13.364374-11.558377-29.618342-19.865961-47.317108-23.839154z m0 0" fill="#709B30" p-id="1378"></path><path d="M422.964374 258.257496c41.537919 10.47478 76.93545 37.564727 97.523809 74.768254-1.083598-33.952734 12.641975-66.821869 37.564727-89.938625v134.727337h-89.938624c0-17.698765-2.528395-35.397531-7.585185-52.373898-7.585185-24.561552-20.58836-47.678307-37.564727-67.183068z m0 0" fill="#7DAC36" p-id="1379"></path><path d="M692.419048 258.257496c-41.537919 10.47478-76.93545 37.564727-97.52381 74.768254 1.083598-33.952734-12.641975-66.821869-37.564727-89.938625v134.727337h89.938625c0-17.698765 2.528395-35.397531 7.585185-52.373898 7.585185-24.561552 20.58836-47.678307 37.564727-67.183068z m0 0" fill="#7DAC36" p-id="1380"></path><path d="M699.643034 392.984832c-11.558377-8.668783-22.394356-12.641975-33.230336-15.892769-21.671958-6.501587-57.069489-14.447972-108.720987-13.725573-51.2903-1.083598-87.04903 6.862787-108.720988 13.725573-10.835979 3.250794-21.671958 7.223986-33.230335 15.892769-63.209877 46.594709-68.266667 154.593298-67.905467 181.322046 0.361199 29.618342 8.668783 135.449735 67.905467 179.15485 11.919577 9.029982 22.755556 13.003175 33.230335 15.892769 20.949559 6.501587 56.34709 14.447972 108.720988 13.364374 52.373898 1.083598 87.771429-6.862787 108.720987-13.364374 10.47478-3.250794 21.310758-7.223986 33.230336-15.892769 59.236684-43.705115 67.544268-149.897707 67.905467-179.15485 0.361199-26.728748-4.695591-134.727337-67.905467-181.322046z m0 0" fill="#F4AA14" p-id="1381"></path><path d="M512.1806 781.274074c15.17037 1.444797 30.340741 1.805996 45.511111 1.444797 15.17037 0.361199 30.340741 0 45.511111-1.444797h-91.022222z m212.746384-363.005291l10.47478 15.892769c-3.250794-5.417989-6.862787-10.47478-10.47478-15.892769z m-49.123104-38.287125l14.086773 6.501587c-4.695591-2.528395-9.391182-4.695591-14.086773-6.501587z m-63.932275-14.086773l16.615167 2.167196c-5.05679-0.722399-10.835979-1.444797-16.615167-2.167196z m-186.017637 20.58836l14.086773-6.501587c-5.05679 1.805996-9.752381 3.973192-14.086773 6.501587z m102.219401-22.755555l21.310758-0.3612c-7.223986 0-14.447972 0-21.310758 0.3612z m-178.071253 171.930864c-0.722399 5.779189-1.083598 11.197178-1.444797 15.892769m8.307584-55.624692c-2.167196 9.029982-3.611993 17.698765-5.05679 26.00635m15.53157-60.320283c-2.167196 5.779189-4.334392 11.919577-6.140388 18.059965m29.257142-61.042681c-3.973192 5.05679-7.223986 10.47478-10.474779 15.892769m374.202469 44.788713c-1.805996-6.140388-3.973192-11.919577-6.140388-18.059965m15.53157 60.681482c-1.444797-8.307584-2.889594-16.976367-5.05679-26.00635m8.307583 55.624692c-0.361199-4.695591-0.722399-10.11358-1.444797-15.892769m-9.029982 119.556966c2.889594-11.919577 5.417989-23.839153 6.862786-34.675132l2.167196-3.250794h-1.805996c0.722399-5.417989 1.444797-10.47478 1.805996-15.531569" fill="#F3AE16" p-id="1382"></path><path d="M748.766138 548.661728c6.140388 1.083598 11.919577 2.167196 17.698765 2.889595-0.361199-4.695591-0.722399-10.11358-1.444797-15.892769-2.528395-0.361199-5.417989-0.722399-8.307584-1.444797 2.167196-4.334392 4.334392-8.307584 6.501587-12.280776-1.444797-8.307584-2.889594-16.976367-5.05679-26.00635-4.695591 11.197178-10.835979 23.116755-17.337566 35.036332-17.337566-3.611993-33.952734-8.668783-50.567901-14.447972 10.835979-15.17037 20.58836-31.424339 29.257143-48.039506 11.558377 4.334392 23.116755 7.946384 34.313933 10.835979-1.805996-6.140388-3.973192-11.919577-6.140388-18.059965-6.862787-2.167196-14.086772-4.334392-21.310759-7.223986 3.250794-6.862787 6.140388-13.364374 8.668783-19.865961-3.250794-5.417989-6.862787-10.835979-10.474779-15.892769-3.611993 9.391182-7.946384 19.504762-12.641975 29.979542-14.809171-6.140388-29.257143-13.003175-43.343916-20.94956 7.585185-13.364374 14.809171-26.728748 20.949559-40.81552-4.334392-2.528395-9.029982-4.695591-14.086772-6.501587-5.779189 13.364374-12.641975 26.728748-20.227161 39.370723-13.364374-8.307584-26.367549-17.698765-38.648324-27.812346l-2.167196-1.805996c5.05679-7.223986 9.391182-14.447972 13.725573-21.671958-5.417989-0.722399-10.835979-1.805996-16.615167-2.167196-2.528395 4.334392-5.779189 9.029982-8.668783 13.725574-5.779189-5.05679-10.835979-10.47478-15.892769-15.892769-6.862787-0.361199-14.086772-0.361199-21.310759-0.3612 9.029982 10.11358 18.421164 19.865961 28.534745 28.895944-10.835979 14.809171-23.116755 28.895944-36.481129 41.899118-13.364374-13.003175-25.64515-27.089947-36.481129-41.899118 10.11358-9.029982 19.504762-18.782363 28.534744-28.895944-7.585185 0-14.809171 0-21.310758 0.3612-5.05679 5.417989-10.47478 10.47478-15.892769 15.892769-2.889594-4.695591-6.140388-9.029982-8.668783-13.725574-5.779189 0.722399-11.558377 1.444797-16.615168 2.167196 4.334392 7.223986 8.668783 14.447972 13.725574 21.671958l-2.167196 1.805996c-12.280776 10.11358-25.283951 19.504762-38.648325 27.812346-7.585185-12.641975-14.086772-26.006349-20.22716-39.370723-4.695591 1.805996-9.391182 3.973192-14.086773 6.501587 6.140388 14.086772 13.364374 27.812346 20.949559 40.81552-14.086772 7.946384-28.534744 15.17037-43.343915 20.94956-5.05679-10.47478-9.391182-20.58836-12.641975-29.979542-3.973192 5.05679-7.223986 10.47478-10.47478 15.892769 2.528395 6.501587 5.417989 13.003175 8.668783 19.865961-7.223986 2.528395-14.447972 5.05679-21.310758 7.223986-2.167196 5.779189-4.334392 11.919577-6.140388 18.059965 11.197178-2.889594 22.755556-6.862787 34.313933-10.835979 8.668783 16.615168 18.421164 32.507937 29.257143 48.039506-16.615168 5.779189-33.591534 10.835979-50.567902 14.447972-6.862787-12.280776-12.641975-23.839153-17.337566-35.036332-2.167196 9.029982-3.611993 17.698765-5.05679 26.00635 1.805996 3.973192 3.973192 8.307584 6.501587 12.280776-2.889594 0.361199-5.417989 0.722399-8.307583 1.444797-0.722399 5.779189-1.083598 11.197178-1.444797 15.892769 5.779189-0.722399 11.558377-1.805996 17.698765-2.889595 9.752381 16.253968 20.58836 32.146737 32.869136 46.955909-16.253968 2.889594-32.869136 5.05679-49.484304 6.140388 0.361199 4.695591 1.083598 10.11358 1.805997 15.531569 19.865961-1.444797 39.731922-4.334392 59.236684-8.307583 12.641975 14.086772 26.367549 27.451146 41.17672 39.370723l5.417989 4.334391c-23.477954 5.417989-46.955908 9.029982-70.795062 10.47478-12.641975-13.364374-23.839153-27.812346-34.313933-42.621517 1.805996 11.558377 3.973192 23.116755 6.862787 34.675132 2.528395 3.250794 5.05679 6.140388 7.946385 9.391182h-5.41799c1.444797 5.05679 3.250794 10.47478 5.05679 15.53157 4.695591 0 9.391182-0.361199 13.725573-0.722399 10.47478 10.835979 21.310758 20.949559 32.869136 30.340741 6.501587 5.417989 13.003175 10.11358 19.504762 15.17037-13.725573 1.444797-27.812346 1.805996-42.621517 2.167196 3.973192 5.417989 7.946384 10.47478 12.641976 15.17037 16.615168-0.361199 32.869136-1.805996 49.484303-3.973192 24.561552 15.892769 50.929101 28.895944 78.380247 39.009524-6.140388 1.444797-12.280776 2.889594-18.782363 3.973192 15.17037 1.444797 30.340741 1.805996 45.511111 1.444797 15.17037 0.361199 30.340741 0 45.511111-1.444797-6.140388-1.083598-12.280776-2.528395-18.782363-3.973192 27.451146-10.11358 53.818695-23.116755 78.741446-39.009524 16.253968 2.167196 32.869136 3.611993 49.484303 3.973192 4.695591-4.695591 9.029982-9.752381 12.641975-15.17037-14.809171 0-28.895944-0.722399-42.621516-2.167196 6.862787-4.695591 13.364374-9.752381 19.504762-15.17037 11.558377-9.391182 22.394356-19.504762 32.507936-30.340741 4.695591 0.361199 9.391182 0.361199 14.086773 0.722399 1.805996-5.05679 3.611993-10.11358 5.05679-15.53157h-5.41799c2.528395-2.889594 5.417989-6.140388 7.585185-9.029982 2.889594-11.919577 5.417989-23.839153 6.862787-34.675133-10.47478 15.17037-22.033157 29.257143-34.313933 42.621517-23.839153-1.805996-47.678307-5.05679-70.795062-10.474779l5.41799-4.334392c14.809171-12.280776 28.534744-25.283951 41.176719-39.370723 19.504762 3.973192 39.370723 6.862787 59.236685 8.307584 0.722399-5.417989 1.444797-10.47478 1.805996-15.53157-16.615168-1.083598-33.230335-3.250794-49.484303-6.140388 12.280776-15.53157 23.116755-31.063139 32.869136-47.317108zM660.63351 440.663139c14.447972 8.307584 29.257143 15.53157 44.427513 22.033157-8.668783 16.615168-18.782363 32.869136-29.979542 48.039506-16.976367-6.862787-33.230335-14.809171-48.761904-24.200352 12.641975-14.447972 24.200353-29.618342 34.313933-45.872311z m-156.760494 137.255732c18.782363-9.029982 36.481129-19.143563 53.818695-30.70194 16.976367 11.558377 35.036332 22.033157 53.818695 30.70194-16.976367 13.725573-34.675132 25.64515-53.818695 36.11993-18.782363-10.47478-36.842328-22.394356-53.818695-36.11993z m119.195767 81.269842c-20.58836 13.725573-42.621517 25.64515-65.377072 35.036331-22.755556-9.391182-44.788713-21.310758-65.377073-35.036331 22.394356-7.223986 44.427513-16.253968 65.377073-27.089948 20.949559 10.835979 42.621517 19.865961 65.377072 27.089948z m-132.198942-92.46702c-14.809171-13.364374-28.895944-27.812346-41.176719-43.343915 17.337566-7.223986 33.952734-15.53157 49.845502-25.283951 9.391182 9.752381 19.504762 19.143563 29.979542 27.812346 5.05679 3.973192 10.11358 7.946384 14.809171 11.558377-16.976367 11.197178-34.675132 20.949559-53.457496 29.257143z m80.186244-29.257143c4.695591-3.611993 9.752381-7.585185 14.809171-11.558377 10.47478-8.668783 20.58836-18.059965 29.979541-27.812346 15.892769 9.752381 32.507937 18.059965 49.845503 25.283951-12.641975 15.53157-26.367549 29.979541-41.17672 43.343915-18.782363-8.307584-36.481129-18.059965-53.457495-29.257143z m34.675132-135.088536l1.083598 1.083598c13.003175 10.47478 26.367549 20.22716 40.454321 29.257143-10.11358 16.253968-21.671958 31.424339-34.313933 45.511111-12.280776-7.585185-23.839153-16.253968-35.036332-25.283951-3.250794-2.528395-6.140388-5.417989-9.029982-7.946384 13.364374-13.364374 26.006349-27.451146 36.842328-42.621517z m-48.039506 53.096296c3.611993 2.889594 6.862787 6.140388 10.474779 9.029983 10.835979 9.029982 22.394356 17.337566 33.952734 24.922751-8.307584 8.668783-17.337566 16.615168-26.367549 24.200353-6.140388 5.05679-12.280776 9.752381-18.421164 14.086772-6.140388-4.334392-12.280776-9.029982-18.421164-14.086772-9.029982-7.585185-18.059965-15.53157-26.367548-24.200353 11.919577-7.946384 23.116755-16.253968 33.952734-24.922751 4.334392-2.528395 7.585185-5.779189 11.197178-9.029983z m-49.484304-52.012698l1.083598-1.083598c11.197178 15.17037 23.477954 29.257143 36.842328 42.260318-2.889594 2.528395-5.779189 5.417989-9.029982 7.946384-11.197178 9.029982-22.755556 17.698765-35.036332 25.64515-12.641975-14.086772-24.200353-29.257143-34.313933-45.511111 14.086772-8.668783 27.812346-18.421164 40.454321-29.257143z m-97.885008 59.236684c15.17037-6.501587 29.979541-13.725573 44.427513-22.033157 10.11358 16.253968 21.671958 31.424339 34.313933 45.872311-15.53157 9.391182-32.146737 17.337566-48.761905 24.200352-11.558377-15.53157-21.310758-31.424339-29.979541-48.039506z m-27.812346 82.353439c17.698765-3.973192 35.036332-9.391182 52.012698-15.531569 12.280776 15.892769 26.006349 30.70194 40.454321 44.066314-19.143563 7.585185-38.648325 13.725573-58.514285 18.421164-12.280776-14.809171-23.839153-30.340741-33.952734-46.955909z m45.511111 59.959083c20.58836-5.05679 40.454321-11.558377 59.959083-19.865961 0.722399 0.722399 1.805996 1.444797 2.528395 2.167196 15.892769 13.003175 32.869136 24.922751 50.567901 35.397531-20.949559 10.47478-42.621517 18.782363-65.015873 24.922751-5.05679-3.611993-10.11358-7.585185-14.447972-11.197178-11.558377-9.752381-23.116755-20.22716-33.591534-31.424339z m-5.05679 92.828219c-7.946384-6.501587-15.53157-13.364374-22.394356-20.22716 24.561552-2.167196 48.761905-6.501587 72.601058-13.003175 20.22716 14.447972 41.537919 27.089947 63.932275 37.564727-26.367549 9.391182-53.457496 15.892769-81.269841 19.865961-11.197178-7.585185-22.394356-15.53157-32.869136-24.200353z m134.727337 72.239859c-28.534744-8.668783-55.624691-20.58836-81.631041-35.397531 27.812346-5.05679 55.263492-13.003175 81.631041-23.477954 26.367549 10.47478 53.818695 18.421164 81.63104 23.477954-26.006349 14.809171-53.096296 26.367549-81.63104 35.397531z m157.121693-92.467019c-7.223986 6.862787-14.447972 13.725573-22.394356 20.22716-10.47478 8.668783-21.671958 16.976367-32.869136 24.200353-27.812346-3.973192-54.902293-10.47478-81.269841-19.865961 22.394356-10.47478 43.705115-23.116755 63.932275-37.564727 23.839153 6.501587 48.039506 10.835979 72.601058 13.003175z m-61.40388-41.17672c-4.334392 3.973192-9.391182 7.585185-14.447972 11.197178-22.394356-6.501587-44.066314-14.809171-65.015873-24.922751 17.698765-10.47478 34.675132-22.394356 50.567901-35.397531 0.722399-0.722399 1.805996-1.444797 2.528395-2.167196 19.504762 8.307584 39.731922 14.809171 59.959083 19.865961-10.47478 11.197178-21.671958 21.671958-33.591534 31.424339z m45.511111-44.427513c-19.865961-4.695591-39.731922-10.835979-58.514286-18.421164 14.809171-13.725573 28.173545-28.173545 40.454321-44.066314 16.976367 6.140388 34.313933 11.558377 52.012699 15.531569-10.11358 16.615168-21.671958 32.146737-33.952734 46.955909z m0 0" fill="#F29716" p-id="1383"></path><path d="M465.224691 542.52134c0 7.946384 4.334392 15.53157 11.197178 19.504762 6.862787 3.973192 15.53157 3.973192 22.394357 0 6.862787-3.973192 11.197178-11.558377 11.197178-19.504762 0-12.280776-10.11358-22.394356-22.394356-22.394356-12.280776-0.361199-22.394356 9.752381-22.394357 22.394356z m0 0M615.122399 542.52134c0 7.946384 4.334392 15.53157 11.197178 19.504762 6.862787 3.973192 15.53157 3.973192 22.394356 0 6.862787-3.973192 11.197178-11.558377 11.197178-19.504762 0-12.280776-10.11358-22.394356-22.394356-22.394356-12.280776-0.361199-22.394356 9.752381-22.394356 22.394356z m0 0M566.360494 625.597178c-18.421164 0-33.230335-14.809171-33.230335-33.230335 0-3.611993 2.889594-6.501587 6.501587-6.501587s6.501587 2.889594 6.501587 6.501587c0 11.197178 9.029982 19.865961 19.865962 19.865961 11.197178 0 19.865961-9.029982 19.865961-19.865961 0-3.611993 2.889594-6.501587 6.501587-6.501587s6.501587 2.889594 6.501587 6.501587c0.722399 18.421164-14.086772 33.230335-32.507936 33.230335z m0 0" fill="#0A391E" p-id="1384"></path><path d="M474.254674 582.253263h-25.64515c-7.223986 0-12.641975 5.779189-12.641975 12.641975 0 7.223986 5.779189 12.641975 12.641975 12.641975h25.64515c7.223986 0 12.641975-5.779189 12.641975-12.641975 0-7.223986-5.779189-12.641975-12.641975-12.641975z m204.4388 0h-25.645149c-7.223986 0-12.641975 5.779189-12.641976 12.641975 0 7.223986 5.779189 12.641975 12.641976 12.641975h25.645149c7.223986 0 12.641975-5.779189 12.641976-12.641975 0-7.223986-5.779189-12.641975-12.641976-12.641975z m0 0" fill="#F3D851" p-id="1385"></path></svg>