<?xml version="1.0" standalone="no"?><!DOCTYPE svg PUBLIC "-//W3C//DTD SVG 1.1//EN" "http://www.w3.org/Graphics/SVG/1.1/DTD/svg11.dtd"><svg t="1665809252772" class="icon" viewBox="0 0 1024 1024" version="1.1" xmlns="http://www.w3.org/2000/svg" p-id="1077" xmlns:xlink="http://www.w3.org/1999/xlink" width="200" height="200"><path d="M700.7 367c0-20.9-14.3-38.3-33.5-43.4H427.9c-24.9 0-45 20.2-45 45v124.5h317.8V367z" fill="#AEDEE0" p-id="1078"></path><path d="M720.2 486.3H355.5c-24.9 0-45 20.2-45 45v201.4h454.8V531.4c0-24.9-20.2-45.1-45.1-45.1z" fill="#AEDEE0" p-id="1079"></path><path d="M830.8 775.4c0-23.5-19.1-42.6-42.6-42.6H321.3c-23.5 0-42.6 19.1-42.6 42.6s19.1 42.6 42.6 42.6h466.8c23.6 0 42.7-19.1 42.7-42.6z" fill="#009A89" p-id="1080"></path><path d="M674.6 581.1h29.6V638h-29.6zM319.7 581.1h29.6V638h-29.6z" fill="#262C32" p-id="1081"></path><path d="M583.5 548.4c-17.7-17.7-46.3-17.7-64 0l-7.4 7.5-7.5-7.5c-17.7-17.7-46.3-17.7-64 0-17.7 17.7-17.7 46.3 0 64l7.5 7.5 64 64 64-64 7.5-7.5c17.5-17.7 17.5-46.3-0.1-64z" fill="#FF5400" p-id="1082"></path><path d="M512 704.8l-81.9-81.9c-23.4-23.4-23.4-61.6 0-85 11.3-11.3 26.4-17.6 42.5-17.6 14.7 0 28.5 5.2 39.5 14.8 10.9-9.6 24.8-14.8 39.5-14.8 16 0 31.1 6.2 42.5 17.6 23.4 23.4 23.4 61.5 0 85L512 704.8zM472.5 550c-8.1 0-15.8 3.2-21.5 8.9-11.9 11.9-11.9 31.2 0 43.1l61 61 61-61c11.8-11.9 11.8-31.2 0-43.1-11.5-11.5-31.6-11.5-43.1 0L512 576.8l-17.9-17.9c-5.8-5.8-13.4-8.9-21.6-8.9zM724.6 499.5H299.4V368.6c0-33 26.8-59.8 59.8-59.8h305.6c33 0 59.8 26.8 59.8 59.8v130.9zM329 469.8h366V368.6c0-16.7-13.6-30.2-30.2-30.2H359.2c-16.7 0-30.2 13.6-30.2 30.2v101.2zM227 605.6h29.6v33.3H227z" fill="#262C32" p-id="1083"></path><path d="M797 747.5H227v-79.8h29.6v50.2h510.8V531.4c0-16.7-13.6-30.2-30.2-30.2H286.8c-16.7 0-30.2 13.6-30.2 30.2v43.5H227v-43.5c0-33 26.8-59.8 59.8-59.8h450.3c33 0 59.8 26.8 59.8 59.8v216.1z" fill="#262C32" p-id="1084"></path><path d="M576.8 366.5l-7-41s27.6-27.4 28.9-28.6c14.4-14 11.6-27.8-5.3-32.7l-45.7-6.6-19.9-40.2c-9.2-15-22.5-15-31.7 0l-19.9 40.2-45.7 6.6c-16.9 4.9-19.7 18.7-5.3 32.7 1.3 1.2 28.9 28.6 28.9 28.6l-7 41c-2.8 20.6 10 29.3 29.1 19.3 1.7-0.9 35.7-18.3 35.7-18.3s34 17.4 35.7 18.3c19.2 10 32 1.3 29.2-19.3z" fill="#FFB608" p-id="1085"></path><path d="M461.9 404.8c-7.9 0-13.6-2.8-17-5.2-9.9-6.9-14.4-19.7-12.3-35.1l5.8-34c-8.1-8-22.3-22.1-23.3-23-15.2-14.8-14.6-28.3-13-35 1.6-6.3 6.8-17.5 24.4-22.6l2-0.4 38-5.5 17.1-34.4c9.8-16 22-18.4 28.5-18.4 6.4 0 18.7 2.4 28.5 18.4l0.6 1.2 16.4 33.3 39.9 5.9c17.6 5.1 22.9 16.3 24.4 22.6 1.7 6.7 2.2 20.1-12.9 34.9-1 1-15.3 15.1-23.3 23.1l5.8 34c2.1 15.4-2.4 28.2-12.3 35.1-5.9 4.1-18.8 9.5-38.3-0.7-1.2-0.6-18.8-9.7-28.8-14.8-10 5.1-27.6 14.2-28.8 14.8-8.4 4.2-15.6 5.8-21.4 5.8zM431 280c0.4 1.1 1.6 3.4 4.6 6.3 1.2 1.2 29 28.7 29 28.7l5.5 5.4-8.3 48.6c-0.4 3.3-0.1 5.2 0.2 6.1 1.2 0 3.7-0.5 7.4-2.5 1.8-0.9 35.8-18.4 35.8-18.4l6.8-3.5 6.8 3.5s34.1 17.5 35.8 18.4c3.7 2 6.2 2.4 7.4 2.5 0.3-0.9 0.6-2.9 0.2-6.4l-8.3-48.4 5.5-5.4s27.8-27.5 29-28.7c3-2.9 4.2-5.1 4.6-6.2-0.5-0.4-1.4-0.9-2.9-1.3l-52.2-7.6-23-46.5c-1.3-2-2.3-2.9-2.9-3.4-0.6 0.5-1.6 1.4-2.9 3.4l-23 46.5-52.2 7.6c-1.4 0.4-2.3 0.9-2.9 1.3z" fill="#262C32" p-id="1086"></path><path d="M788.1 832.8H235.9c-31.7 0-57.4-25.8-57.4-57.4 0-31.7 25.8-57.4 57.4-57.4h552.3c31.7 0 57.4 25.8 57.4 57.4 0 31.6-25.8 57.4-57.5 57.4z m-552.2-85.3c-15.3 0-27.8 12.5-27.8 27.8s12.5 27.8 27.8 27.8h552.3c15.3 0 27.8-12.5 27.8-27.8s-12.5-27.8-27.8-27.8H235.9z" fill="#262C32" p-id="1087"></path></svg>