<?xml version="1.0" standalone="no"?><!DOCTYPE svg PUBLIC "-//W3C//DTD SVG 1.1//EN" "http://www.w3.org/Graphics/SVG/1.1/DTD/svg11.dtd"><svg t="1665168080253" class="icon" viewBox="0 0 1024 1024" version="1.1" xmlns="http://www.w3.org/2000/svg" p-id="1207" xmlns:xlink="http://www.w3.org/1999/xlink" width="200" height="200"><path d="M381.952 449.536s-239.616-55.296-337.92 86.016c0 0 114.688 177.152 428.032 21.504-1.024 1.024-83.968-66.56-90.112-107.52z" fill="#37EFC3" p-id="1208"></path><path d="M238.592 631.808c-143.36 0-202.752-88.064-203.776-90.112-2.048-3.072-2.048-8.192 0-11.264 101.376-145.408 338.944-93.184 349.184-90.112 4.096 1.024 7.168 4.096 8.192 8.192 4.096 29.696 63.488 83.968 86.016 101.376 3.072 2.048 4.096 5.12 4.096 9.216 0 3.072-2.048 6.144-5.12 8.192-97.28 48.128-176.128 64.512-238.592 64.512zM56.32 536.576c22.528 27.648 134.144 144.384 396.288 19.456-22.528-19.456-69.632-63.488-79.872-97.28-36.864-7.168-229.376-36.864-316.416 77.824z" fill="#9A2E2C" p-id="1209"></path><path d="M509.952 239.616S618.496 363.52 486.4 573.44c0 0-84.992-90.112-94.208-109.568-9.216-19.456 25.6-182.272 117.76-224.256z" fill="#37EFC3" p-id="1210"></path><path d="M486.4 583.68c-3.072 0-5.12-1.024-7.168-3.072-9.216-9.216-87.04-91.136-96.256-111.616-7.168-15.36 3.072-63.488 17.408-101.376 14.336-38.912 47.104-109.568 105.472-136.192 4.096-2.048 9.216-1.024 12.288 2.048 5.12 5.12 111.616 132.096-22.528 346.112-2.048 2.048-5.12 4.096-9.216 4.096 1.024 0 0 0 0 0z m20.48-330.752c-78.848 44.032-112.64 188.416-105.472 206.848 5.12 12.288 51.2 62.464 82.944 96.256 101.376-169.984 40.96-277.504 22.528-303.104z" fill="#9A2E2C" p-id="1211"></path><path d="M747.52 148.48S821.248 6.144 884.736 105.472s70.656 246.784-14.336 261.12-219.136-20.48-233.472-161.792C622.592 63.488 747.52 148.48 747.52 148.48z" fill="#3AEDA0" p-id="1212"></path><path d="M833.536 379.904c-44.032 0-95.232-11.264-137.216-44.032-39.936-30.72-64.512-75.776-69.632-131.072-4.096-44.032 4.096-73.728 25.6-86.016 29.696-17.408 72.704 3.072 91.136 14.336 13.312-21.504 47.104-71.68 88.064-73.728 23.552-1.024 43.008 12.288 60.416 39.936 47.104 73.728 63.488 172.032 37.888 228.352-12.288 26.624-32.768 44.032-59.392 48.128-10.24 3.072-23.552 4.096-36.864 4.096zM678.912 133.12c-6.144 0-11.264 1.024-16.384 4.096-17.408 10.24-17.408 41.984-15.36 66.56 5.12 50.176 25.6 89.088 61.44 116.736 50.176 37.888 116.736 44.032 159.744 36.864 20.48-3.072 34.816-15.36 44.032-35.84 22.528-50.176 6.144-142.336-36.864-209.92-13.312-20.48-27.648-30.72-43.008-30.72-32.768 1.024-66.56 52.224-75.776 72.704-1.024 3.072-4.096 4.096-6.144 5.12-3.072 1.024-6.144 0-8.192-1.024-12.288-8.192-40.96-24.576-63.488-24.576z" fill="#9A2E2C" p-id="1213"></path><path d="M551.936 829.44c-1.024 0-3.072 0-4.096-1.024-5.12-2.048-7.168-8.192-5.12-13.312 38.912-90.112 0-149.504-23.552-185.344-4.096-7.168-8.192-13.312-11.264-18.432-2.048-3.072-13.312-15.36-24.576-26.624-78.848-81.92-289.792-299.008-122.88-479.232C506.88-51.2 590.848 21.504 658.432 79.872c24.576 21.504 48.128 41.984 73.728 51.2 104.448 36.864 112.64 139.264 112.64 143.36 0 6.144-4.096 10.24-9.216 11.264-6.144 0-10.24-4.096-11.264-9.216 0-4.096-8.192-93.184-99.328-124.928-28.672-10.24-53.248-31.744-79.872-55.296-70.656-61.44-137.216-118.784-269.312 23.552-154.624 165.888 46.08 373.76 121.856 451.584 17.408 17.408 25.6 25.6 27.648 31.744 2.048 4.096 6.144 9.216 10.24 16.384 24.576 36.864 69.632 104.448 25.6 204.8-1.024 2.048-5.12 5.12-9.216 5.12z" fill="#9A2E2C" p-id="1214"></path><path d="M149.504 1016.832h762.88s41.984-126.976-155.648-141.312c0 0 14.336-134.144-141.312-99.328 0 0-112.64-112.64-176.128 7.168 0 0-141.312-41.984-134.144 105.472 0 1.024-184.32-34.816-155.648 128z" fill="#F9A058" p-id="1215"></path><path d="M870.4 522.24s-253.952-105.472-338.944 99.328c0 0-14.336 99.328 176.128 56.32S870.4 522.24 870.4 522.24z" fill="#3AEDA0" p-id="1216"></path><path d="M624.64 698.368c-36.864 0-64.512-8.192-82.944-24.576-24.576-22.528-20.48-52.224-20.48-54.272 0-1.024 0-2.048 1.024-2.048 22.528-55.296 60.416-94.208 110.592-114.688 107.52-44.032 236.544 8.192 241.664 10.24 3.072 1.024 5.12 4.096 6.144 7.168 0 2.048 9.216 37.888-16.384 78.848-26.624 41.984-77.824 72.704-154.624 89.088-32.768 7.168-60.416 10.24-84.992 10.24z m-83.968-74.752c0 4.096 0 21.504 14.336 34.816 17.408 15.36 56.32 29.696 149.504 9.216 70.656-15.36 117.76-41.984 141.312-79.872 16.384-25.6 15.36-48.128 14.336-58.368-24.576-9.216-133.12-45.056-221.184-8.192-44.032 18.432-76.8 53.248-98.304 102.4z" fill="#9A2E2C" p-id="1217"></path></svg>